<?xml version="1.0" encoding="UTF-8" standalone="no"?>
<!DOCTYPE svg PUBLIC "-//W3C//DTD SVG 1.0//EN"
 "http://www.w3.org/TR/2001/REC-SVG-20010904/DTD/svg10.dtd" [
 <!ATTLIST svg xmlns:xlink CDATA #FIXED "http://www.w3.org/1999/xlink">
]>
<!-- Generated by Graphviz version 2.12 (Mon Dec  4 22:04:37 UTC 2006)
     For user: Bill Gates -->
<!-- Title: G Pages: 1 -->
<svg width="13.09in" height="14.42in"
 xmlns="http://www.w3.org/2000/svg" xmlns:xlink="http://www.w3.org/1999/xlink">
<g id="graph0" class="graph" transform="scale(1.33333 1.33333) rotate(0) translate(4 1034)">
<title>G</title>
<polygon style="fill:none;stroke:none;" points="-4,4 -4,-1034 939,-1034 939,4 -4,4"/>
<g id="cluster2" class="cluster"><title>cluster_models</title>
<polygon style="fill:white;stroke:none;" points="8,-16 8,-1022 927,-1022 927,-16 8,-16"/>
<text text-anchor="middle" x="467" y="-1004" style="font:Verdana;font-size:11.34pt;">Models</text>
</g>
<!-- Quran -->
<g id="node2" class="node"><title>Quran</title>
<polygon style="fill:#f1ffe8;stroke:black;" points="600,-720 600,-990 795,-990 795,-720 600,-720"/>
<text text-anchor="middle" x="697" y="-977" style="font:Verdana;font-size:7.29pt;">Quran</text>
<polyline style="fill:none;stroke:black;" points="600,-972 795,-972 "/>
<text text-anchor="middle" x="697" y="-959" style="font:Verdana;font-size:7.29pt;">id (integer)</text>
<polyline style="fill:none;stroke:black;" points="600,-954 795,-954 "/>
<text text-anchor="middle" x="697" y="-941" style="font:Verdana;font-size:7.29pt;">code (string)</text>
<polyline style="fill:none;stroke:black;" points="600,-936 795,-936 "/>
<text text-anchor="middle" x="697" y="-923" style="font:Verdana;font-size:7.29pt;">short_name (string)</text>
<polyline style="fill:none;stroke:black;" points="600,-918 795,-918 "/>
<text text-anchor="middle" x="697" y="-905" style="font:Verdana;font-size:7.29pt;">full_name (string)</text>
<polyline style="fill:none;stroke:black;" points="600,-900 795,-900 "/>
<text text-anchor="middle" x="697" y="-887" style="font:Verdana;font-size:7.29pt;">author (string)</text>
<polyline style="fill:none;stroke:black;" points="600,-882 795,-882 "/>
<text text-anchor="middle" x="697" y="-869" style="font:Verdana;font-size:7.29pt;">description (text)</text>
<polyline style="fill:none;stroke:black;" points="600,-864 795,-864 "/>
<text text-anchor="middle" x="697" y="-851" style="font:Verdana;font-size:7.29pt;">contains_surah_elaborations (boolean)</text>
<polyline style="fill:none;stroke:black;" points="600,-846 795,-846 "/>
<text text-anchor="middle" x="697" y="-833" style="font:Verdana;font-size:7.29pt;">contains_ayahs (boolean)</text>
<polyline style="fill:none;stroke:black;" points="600,-828 795,-828 "/>
<text text-anchor="middle" x="697" y="-815" style="font:Verdana;font-size:7.29pt;">contains_ayah_elaborations (boolean)</text>
<polyline style="fill:none;stroke:black;" points="600,-810 795,-810 "/>
<text text-anchor="middle" x="697" y="-797" style="font:Verdana;font-size:7.29pt;">contains_ayah_themes (boolean)</text>
<polyline style="fill:none;stroke:black;" points="600,-792 795,-792 "/>
<text text-anchor="middle" x="697" y="-779" style="font:Verdana;font-size:7.29pt;">contains_subjects (boolean)</text>
<polyline style="fill:none;stroke:black;" points="600,-774 795,-774 "/>
<text text-anchor="middle" x="697" y="-761" style="font:Verdana;font-size:7.29pt;">created_at (datetime)</text>
<polyline style="fill:none;stroke:black;" points="600,-756 795,-756 "/>
<text text-anchor="middle" x="697" y="-743" style="font:Verdana;font-size:7.29pt;">updated_at (datetime)</text>
<polyline style="fill:none;stroke:black;" points="600,-738 795,-738 "/>
<text text-anchor="middle" x="697" y="-725" style="font:Verdana;font-size:7.29pt;">lock_version (integer)</text>
</g>
<!-- QuranSurah -->
<g id="node4" class="node"><title>QuranSurah</title>
<polygon style="fill:#f1ffe8;stroke:black;" points="588,-488 588,-632 709,-632 709,-488 588,-488"/>
<text text-anchor="middle" x="648" y="-619" style="font:Verdana;font-size:7.29pt;">QuranSurah</text>
<polyline style="fill:none;stroke:black;" points="588,-614 709,-614 "/>
<text text-anchor="middle" x="648" y="-601" style="font:Verdana;font-size:7.29pt;">id (integer)</text>
<polyline style="fill:none;stroke:black;" points="588,-596 709,-596 "/>
<text text-anchor="middle" x="648" y="-583" style="font:Verdana;font-size:7.29pt;">quran_id (integer)</text>
<polyline style="fill:none;stroke:black;" points="588,-578 709,-578 "/>
<text text-anchor="middle" x="648" y="-565" style="font:Verdana;font-size:7.29pt;">surah_num (integer)</text>
<polyline style="fill:none;stroke:black;" points="588,-560 709,-560 "/>
<text text-anchor="middle" x="648" y="-547" style="font:Verdana;font-size:7.29pt;">overview (text)</text>
<polyline style="fill:none;stroke:black;" points="588,-542 709,-542 "/>
<text text-anchor="middle" x="648" y="-529" style="font:Verdana;font-size:7.29pt;">created_at (datetime)</text>
<polyline style="fill:none;stroke:black;" points="588,-524 709,-524 "/>
<text text-anchor="middle" x="648" y="-511" style="font:Verdana;font-size:7.29pt;">updated_at (datetime)</text>
<polyline style="fill:none;stroke:black;" points="588,-506 709,-506 "/>
<text text-anchor="middle" x="648" y="-493" style="font:Verdana;font-size:7.29pt;">lock_version (integer)</text>
</g>
<!-- Quran&#45;&gt;QuranSurah -->
<g id="edge3" class="edge"><title>Quran&#45;&gt;QuranSurah</title>
<path style="fill:none;stroke:black;" d="M675,-720C671,-694 666,-666 662,-642"/>
<polygon style="fill:black;stroke:black;" points="665.393,-641.119 660,-632 658.529,-642.492 665.393,-641.119"/>
<a xlink:title="surahs">
</a>
<a xlink:title="surahs">
</a>
<text text-anchor="middle" x="688" y="-688" style="font-family:Nimbus Roman No9 L;font-weight:regular;font-size:11.34pt;">surahs</text>
</g>
<!-- QuranSubject -->
<g id="node6" class="node"><title>QuranSubject</title>
<polygon style="fill:#f1ffe8;stroke:black;" points="726,-479 726,-641 848,-641 848,-479 726,-479"/>
<text text-anchor="middle" x="787" y="-628" style="font:Verdana;font-size:7.29pt;">QuranSubject</text>
<polyline style="fill:none;stroke:black;" points="726,-623 848,-623 "/>
<text text-anchor="middle" x="787" y="-610" style="font:Verdana;font-size:7.29pt;">id (integer)</text>
<polyline style="fill:none;stroke:black;" points="726,-605 848,-605 "/>
<text text-anchor="middle" x="787" y="-592" style="font:Verdana;font-size:7.29pt;">quran_id (integer)</text>
<polyline style="fill:none;stroke:black;" points="726,-587 848,-587 "/>
<text text-anchor="middle" x="787" y="-574" style="font:Verdana;font-size:7.29pt;">parent_id (integer)</text>
<polyline style="fill:none;stroke:black;" points="726,-569 848,-569 "/>
<text text-anchor="middle" x="787" y="-556" style="font:Verdana;font-size:7.29pt;">topic (string)</text>
<polyline style="fill:none;stroke:black;" points="726,-551 848,-551 "/>
<text text-anchor="middle" x="787" y="-538" style="font:Verdana;font-size:7.29pt;">full_topic_path (string)</text>
<polyline style="fill:none;stroke:black;" points="726,-533 848,-533 "/>
<text text-anchor="middle" x="787" y="-520" style="font:Verdana;font-size:7.29pt;">created_at (datetime)</text>
<polyline style="fill:none;stroke:black;" points="726,-515 848,-515 "/>
<text text-anchor="middle" x="787" y="-502" style="font:Verdana;font-size:7.29pt;">updated_at (datetime)</text>
<polyline style="fill:none;stroke:black;" points="726,-497 848,-497 "/>
<text text-anchor="middle" x="787" y="-484" style="font:Verdana;font-size:7.29pt;">lock_version (integer)</text>
</g>
<!-- Quran&#45;&gt;QuranSubject -->
<g id="edge5" class="edge"><title>Quran&#45;&gt;QuranSubject</title>
<path style="fill:none;stroke:black;" d="M738,-720C745,-696 753,-673 759,-651"/>
<polygon style="fill:black;stroke:black;" points="762.479,-651.584 762,-641 755.774,-649.573 762.479,-651.584"/>
<a xlink:title="subjects">
</a>
<a xlink:title="subjects">
</a>
<text text-anchor="middle" x="769" y="-688" style="font-family:Nimbus Roman No9 L;font-weight:regular;font-size:11.34pt;">subjects</text>
</g>
<!-- QuranAyah -->
<g id="node7" class="node"><title>QuranAyah</title>
<polygon style="fill:#f1ffe8;stroke:black;" points="582,-247 582,-391 714,-391 714,-247 582,-247"/>
<text text-anchor="middle" x="648" y="-378" style="font:Verdana;font-size:7.29pt;">QuranAyah</text>
<polyline style="fill:none;stroke:black;" points="582,-373 714,-373 "/>
<text text-anchor="middle" x="648" y="-360" style="font:Verdana;font-size:7.29pt;">id (integer)</text>
<polyline style="fill:none;stroke:black;" points="582,-355 714,-355 "/>
<text text-anchor="middle" x="648" y="-342" style="font:Verdana;font-size:7.29pt;">quran_surah_id (integer)</text>
<polyline style="fill:none;stroke:black;" points="582,-337 714,-337 "/>
<text text-anchor="middle" x="648" y="-324" style="font:Verdana;font-size:7.29pt;">ayah_num (integer)</text>
<polyline style="fill:none;stroke:black;" points="582,-319 714,-319 "/>
<text text-anchor="middle" x="648" y="-306" style="font:Verdana;font-size:7.29pt;">text (text)</text>
<polyline style="fill:none;stroke:black;" points="582,-301 714,-301 "/>
<text text-anchor="middle" x="648" y="-288" style="font:Verdana;font-size:7.29pt;">created_at (datetime)</text>
<polyline style="fill:none;stroke:black;" points="582,-283 714,-283 "/>
<text text-anchor="middle" x="648" y="-270" style="font:Verdana;font-size:7.29pt;">updated_at (datetime)</text>
<polyline style="fill:none;stroke:black;" points="582,-265 714,-265 "/>
<text text-anchor="middle" x="648" y="-252" style="font:Verdana;font-size:7.29pt;">lock_version (integer)</text>
</g>
<!-- QuranSurah&#45;&gt;QuranAyah -->
<g id="edge23" class="edge"><title>QuranSurah&#45;&gt;QuranAyah</title>
<path style="fill:none;stroke:black;" d="M648,-488C648,-460 648,-430 648,-401"/>
<polygon style="fill:black;stroke:black;" points="651.5,-401 648,-391 644.5,-401 651.5,-401"/>
<a xlink:title="ayahs">
</a>
<a xlink:title="ayahs">
</a>
<text text-anchor="middle" x="664" y="-420" style="font-family:Nimbus Roman No9 L;font-weight:regular;font-size:11.34pt;">ayahs</text>
</g>
<!-- QuranAyahsTheme -->
<g id="node10" class="node"><title>QuranAyahsTheme</title>
<polygon style="fill:#f1ffe8;stroke:black;" points="430,-238 430,-400 565,-400 565,-238 430,-238"/>
<text text-anchor="middle" x="497" y="-387" style="font:Verdana;font-size:7.29pt;">QuranAyahsTheme</text>
<polyline style="fill:none;stroke:black;" points="430,-382 565,-382 "/>
<text text-anchor="middle" x="497" y="-369" style="font:Verdana;font-size:7.29pt;">id (integer)</text>
<polyline style="fill:none;stroke:black;" points="430,-364 565,-364 "/>
<text text-anchor="middle" x="497" y="-351" style="font:Verdana;font-size:7.29pt;">quran_surah_id (integer)</text>
<polyline style="fill:none;stroke:black;" points="430,-346 565,-346 "/>
<text text-anchor="middle" x="497" y="-333" style="font:Verdana;font-size:7.29pt;">start_ayah_num (integer)</text>
<polyline style="fill:none;stroke:black;" points="430,-328 565,-328 "/>
<text text-anchor="middle" x="497" y="-315" style="font:Verdana;font-size:7.29pt;">end_ayah_num (integer)</text>
<polyline style="fill:none;stroke:black;" points="430,-310 565,-310 "/>
<text text-anchor="middle" x="497" y="-297" style="font:Verdana;font-size:7.29pt;">theme (text)</text>
<polyline style="fill:none;stroke:black;" points="430,-292 565,-292 "/>
<text text-anchor="middle" x="497" y="-279" style="font:Verdana;font-size:7.29pt;">created_at (datetime)</text>
<polyline style="fill:none;stroke:black;" points="430,-274 565,-274 "/>
<text text-anchor="middle" x="497" y="-261" style="font:Verdana;font-size:7.29pt;">updated_at (datetime)</text>
<polyline style="fill:none;stroke:black;" points="430,-256 565,-256 "/>
<text text-anchor="middle" x="497" y="-243" style="font:Verdana;font-size:7.29pt;">lock_version (integer)</text>
</g>
<!-- QuranSurah&#45;&gt;QuranAyahsTheme -->
<g id="edge25" class="edge"><title>QuranSurah&#45;&gt;QuranAyahsTheme</title>
<path style="fill:none;stroke:black;" d="M603,-488C588,-463 570,-435 553,-409"/>
<polygon style="fill:black;stroke:black;" points="555.916,-407.042 548,-400 549.797,-410.441 555.916,-407.042"/>
<a xlink:title="themes">
</a>
<a xlink:title="themes">
</a>
<text text-anchor="middle" x="587" y="-420" style="font-family:Nimbus Roman No9 L;font-weight:regular;font-size:11.34pt;">themes</text>
</g>
<!-- QuranSubject&#45;&gt;QuranSubject -->
<g id="edge19" class="edge"><title>QuranSubject&#45;&gt;QuranSubject</title>
<path style="fill:none;stroke:black;" d="M848,-607C859,-600 866,-585 866,-560 866,-541 862,-528 855,-520"/>
<polygon style="fill:black;stroke:black;" points="857.546,-517.596 848,-513 852.596,-522.546 857.546,-517.596"/>
<a xlink:title="subtopics">
</a>
<a xlink:title="subtopics">
</a>
<text text-anchor="middle" x="892" y="-554" style="font-family:Nimbus Roman No9 L;font-weight:regular;font-size:11.34pt;">subtopics</text>
</g>
<!-- QuranSubjectLocation -->
<g id="node23" class="node"><title>QuranSubjectLocation</title>
<polygon style="fill:#f1ffe8;stroke:black;" points="732,-247 732,-391 872,-391 872,-247 732,-247"/>
<text text-anchor="middle" x="802" y="-378" style="font:Verdana;font-size:7.29pt;">QuranSubjectLocation</text>
<polyline style="fill:none;stroke:black;" points="732,-373 872,-373 "/>
<text text-anchor="middle" x="802" y="-360" style="font:Verdana;font-size:7.29pt;">id (integer)</text>
<polyline style="fill:none;stroke:black;" points="732,-355 872,-355 "/>
<text text-anchor="middle" x="802" y="-342" style="font:Verdana;font-size:7.29pt;">quran_subject_id (integer)</text>
<polyline style="fill:none;stroke:black;" points="732,-337 872,-337 "/>
<text text-anchor="middle" x="802" y="-324" style="font:Verdana;font-size:7.29pt;">surah_num (integer)</text>
<polyline style="fill:none;stroke:black;" points="732,-319 872,-319 "/>
<text text-anchor="middle" x="802" y="-306" style="font:Verdana;font-size:7.29pt;">ayah_num (integer)</text>
<polyline style="fill:none;stroke:black;" points="732,-301 872,-301 "/>
<text text-anchor="middle" x="802" y="-288" style="font:Verdana;font-size:7.29pt;">created_at (datetime)</text>
<polyline style="fill:none;stroke:black;" points="732,-283 872,-283 "/>
<text text-anchor="middle" x="802" y="-270" style="font:Verdana;font-size:7.29pt;">updated_at (datetime)</text>
<polyline style="fill:none;stroke:black;" points="732,-265 872,-265 "/>
<text text-anchor="middle" x="802" y="-252" style="font:Verdana;font-size:7.29pt;">lock_version (integer)</text>
</g>
<!-- QuranSubject&#45;&gt;QuranSubjectLocation -->
<g id="edge21" class="edge"><title>QuranSubject&#45;&gt;QuranSubjectLocation</title>
<path style="fill:none;stroke:black;" d="M792,-479C794,-454 796,-426 797,-401"/>
<polygon style="fill:black;stroke:black;" points="800.5,-401 797,-391 793.5,-401 800.5,-401"/>
<a xlink:title="locations">
</a>
<a xlink:title="locations">
</a>
<text text-anchor="middle" x="819" y="-420" style="font-family:Nimbus Roman No9 L;font-weight:regular;font-size:11.34pt;">locations</text>
</g>
<!-- QuranAyahElaboration -->
<g id="node9" class="node"><title>QuranAyahElaboration</title>
<polygon style="fill:#f1ffe8;stroke:black;" points="584,-24 584,-186 712,-186 712,-24 584,-24"/>
<text text-anchor="middle" x="648" y="-173" style="font:Verdana;font-size:7.29pt;">QuranAyahElaboration</text>
<polyline style="fill:none;stroke:black;" points="584,-168 712,-168 "/>
<text text-anchor="middle" x="648" y="-155" style="font:Verdana;font-size:7.29pt;">id (integer)</text>
<polyline style="fill:none;stroke:black;" points="584,-150 712,-150 "/>
<text text-anchor="middle" x="648" y="-137" style="font:Verdana;font-size:7.29pt;">quran_ayah_id (integer)</text>
<polyline style="fill:none;stroke:black;" points="584,-132 712,-132 "/>
<text text-anchor="middle" x="648" y="-119" style="font:Verdana;font-size:7.29pt;">num (integer)</text>
<polyline style="fill:none;stroke:black;" points="584,-114 712,-114 "/>
<text text-anchor="middle" x="648" y="-101" style="font:Verdana;font-size:7.29pt;">code (string)</text>
<polyline style="fill:none;stroke:black;" points="584,-96 712,-96 "/>
<text text-anchor="middle" x="648" y="-83" style="font:Verdana;font-size:7.29pt;">text (text)</text>
<polyline style="fill:none;stroke:black;" points="584,-78 712,-78 "/>
<text text-anchor="middle" x="648" y="-65" style="font:Verdana;font-size:7.29pt;">created_at (datetime)</text>
<polyline style="fill:none;stroke:black;" points="584,-60 712,-60 "/>
<text text-anchor="middle" x="648" y="-47" style="font:Verdana;font-size:7.29pt;">updated_at (datetime)</text>
<polyline style="fill:none;stroke:black;" points="584,-42 712,-42 "/>
<text text-anchor="middle" x="648" y="-29" style="font:Verdana;font-size:7.29pt;">lock_version (integer)</text>
</g>
<!-- QuranAyah&#45;&gt;QuranAyahElaboration -->
<g id="edge7" class="edge"><title>QuranAyah&#45;&gt;QuranAyahElaboration</title>
<path style="fill:none;stroke:black;" d="M648,-247C648,-231 648,-213 648,-196"/>
<polygon style="fill:black;stroke:black;" points="651.5,-196 648,-186 644.5,-196 651.5,-196"/>
<a xlink:title="elaborations">
</a>
<a xlink:title="elaborations">
</a>
<text text-anchor="middle" x="682" y="-206" style="font-family:Nimbus Roman No9 L;font-weight:regular;font-size:11.34pt;">elaborations</text>
</g>
<!-- QuranPageImage -->
<g id="node11" class="node"><title>QuranPageImage</title>
<polygon style="fill:#f1ffe8;stroke:black;" points="450,-452 450,-668 571,-668 571,-452 450,-452"/>
<text text-anchor="middle" x="510" y="-655" style="font:Verdana;font-size:7.29pt;">QuranPageImage</text>
<polyline style="fill:none;stroke:black;" points="450,-650 571,-650 "/>
<text text-anchor="middle" x="510" y="-637" style="font:Verdana;font-size:7.29pt;">id (integer)</text>
<polyline style="fill:none;stroke:black;" points="450,-632 571,-632 "/>
<text text-anchor="middle" x="510" y="-619" style="font:Verdana;font-size:7.29pt;">surah_num (integer)</text>
<polyline style="fill:none;stroke:black;" points="450,-614 571,-614 "/>
<text text-anchor="middle" x="510" y="-601" style="font:Verdana;font-size:7.29pt;">ayah_num (integer)</text>
<polyline style="fill:none;stroke:black;" points="450,-596 571,-596 "/>
<text text-anchor="middle" x="510" y="-583" style="font:Verdana;font-size:7.29pt;">page_num (integer)</text>
<polyline style="fill:none;stroke:black;" points="450,-578 571,-578 "/>
<text text-anchor="middle" x="510" y="-565" style="font:Verdana;font-size:7.29pt;">xstart (integer)</text>
<polyline style="fill:none;stroke:black;" points="450,-560 571,-560 "/>
<text text-anchor="middle" x="510" y="-547" style="font:Verdana;font-size:7.29pt;">xend (integer)</text>
<polyline style="fill:none;stroke:black;" points="450,-542 571,-542 "/>
<text text-anchor="middle" x="510" y="-529" style="font:Verdana;font-size:7.29pt;">ystart (integer)</text>
<polyline style="fill:none;stroke:black;" points="450,-524 571,-524 "/>
<text text-anchor="middle" x="510" y="-511" style="font:Verdana;font-size:7.29pt;">yend (integer)</text>
<polyline style="fill:none;stroke:black;" points="450,-506 571,-506 "/>
<text text-anchor="middle" x="510" y="-493" style="font:Verdana;font-size:7.29pt;">created_at (datetime)</text>
<polyline style="fill:none;stroke:black;" points="450,-488 571,-488 "/>
<text text-anchor="middle" x="510" y="-475" style="font:Verdana;font-size:7.29pt;">updated_at (datetime)</text>
<polyline style="fill:none;stroke:black;" points="450,-470 571,-470 "/>
<text text-anchor="middle" x="510" y="-457" style="font:Verdana;font-size:7.29pt;">lock_version (integer)</text>
</g>
<!-- QuranStructJuz -->
<g id="node12" class="node"><title>QuranStructJuz</title>
<polygon style="fill:#f1ffe8;stroke:black;" points="16,-497 16,-623 137,-623 137,-497 16,-497"/>
<text text-anchor="middle" x="76" y="-610" style="font:Verdana;font-size:7.29pt;">QuranStructJuz</text>
<polyline style="fill:none;stroke:black;" points="16,-605 137,-605 "/>
<text text-anchor="middle" x="76" y="-592" style="font:Verdana;font-size:7.29pt;">juz_num (integer)</text>
<polyline style="fill:none;stroke:black;" points="16,-587 137,-587 "/>
<text text-anchor="middle" x="76" y="-574" style="font:Verdana;font-size:7.29pt;">surah_num (integer)</text>
<polyline style="fill:none;stroke:black;" points="16,-569 137,-569 "/>
<text text-anchor="middle" x="76" y="-556" style="font:Verdana;font-size:7.29pt;">ayah_num (integer)</text>
<polyline style="fill:none;stroke:black;" points="16,-551 137,-551 "/>
<text text-anchor="middle" x="76" y="-538" style="font:Verdana;font-size:7.29pt;">created_at (datetime)</text>
<polyline style="fill:none;stroke:black;" points="16,-533 137,-533 "/>
<text text-anchor="middle" x="76" y="-520" style="font:Verdana;font-size:7.29pt;">updated_at (datetime)</text>
<polyline style="fill:none;stroke:black;" points="16,-515 137,-515 "/>
<text text-anchor="middle" x="76" y="-502" style="font:Verdana;font-size:7.29pt;">lock_version (integer)</text>
</g>
<!-- QuranStructSajdaTilawa -->
<g id="node13" class="node"><title>QuranStructSajdaTilawa</title>
<polygon style="fill:#f1ffe8;stroke:black;" points="154,-497 154,-623 281,-623 281,-497 154,-497"/>
<text text-anchor="middle" x="217" y="-610" style="font:Verdana;font-size:7.29pt;">QuranStructSajdaTilawa</text>
<polyline style="fill:none;stroke:black;" points="154,-605 281,-605 "/>
<text text-anchor="middle" x="217" y="-592" style="font:Verdana;font-size:7.29pt;">sajda_num (integer)</text>
<polyline style="fill:none;stroke:black;" points="154,-587 281,-587 "/>
<text text-anchor="middle" x="217" y="-574" style="font:Verdana;font-size:7.29pt;">surah_num (integer)</text>
<polyline style="fill:none;stroke:black;" points="154,-569 281,-569 "/>
<text text-anchor="middle" x="217" y="-556" style="font:Verdana;font-size:7.29pt;">ayah_num (integer)</text>
<polyline style="fill:none;stroke:black;" points="154,-551 281,-551 "/>
<text text-anchor="middle" x="217" y="-538" style="font:Verdana;font-size:7.29pt;">created_at (datetime)</text>
<polyline style="fill:none;stroke:black;" points="154,-533 281,-533 "/>
<text text-anchor="middle" x="217" y="-520" style="font:Verdana;font-size:7.29pt;">updated_at (datetime)</text>
<polyline style="fill:none;stroke:black;" points="154,-515 281,-515 "/>
<text text-anchor="middle" x="217" y="-502" style="font:Verdana;font-size:7.29pt;">lock_version (integer)</text>
</g>
<!-- QuranStructSurah -->
<g id="node14" class="node"><title>QuranStructSurah</title>
<polygon style="fill:#f1ffe8;stroke:black;" points="302,-774 302,-936 428,-936 428,-774 302,-774"/>
<text text-anchor="middle" x="365" y="-923" style="font:Verdana;font-size:7.29pt;">QuranStructSurah</text>
<polyline style="fill:none;stroke:black;" points="302,-918 428,-918 "/>
<text text-anchor="middle" x="365" y="-905" style="font:Verdana;font-size:7.29pt;">surah_num (integer)</text>
<polyline style="fill:none;stroke:black;" points="302,-900 428,-900 "/>
<text text-anchor="middle" x="365" y="-887" style="font:Verdana;font-size:7.29pt;">name (string)</text>
<polyline style="fill:none;stroke:black;" points="302,-882 428,-882 "/>
<text text-anchor="middle" x="365" y="-869" style="font:Verdana;font-size:7.29pt;">ayah_count (integer)</text>
<polyline style="fill:none;stroke:black;" points="302,-864 428,-864 "/>
<text text-anchor="middle" x="365" y="-851" style="font:Verdana;font-size:7.29pt;">revealed_num (integer)</text>
<polyline style="fill:none;stroke:black;" points="302,-846 428,-846 "/>
<text text-anchor="middle" x="365" y="-833" style="font:Verdana;font-size:7.29pt;">revealed_city (string)</text>
<polyline style="fill:none;stroke:black;" points="302,-828 428,-828 "/>
<text text-anchor="middle" x="365" y="-815" style="font:Verdana;font-size:7.29pt;">created_at (datetime)</text>
<polyline style="fill:none;stroke:black;" points="302,-810 428,-810 "/>
<text text-anchor="middle" x="365" y="-797" style="font:Verdana;font-size:7.29pt;">updated_at (datetime)</text>
<polyline style="fill:none;stroke:black;" points="302,-792 428,-792 "/>
<text text-anchor="middle" x="365" y="-779" style="font:Verdana;font-size:7.29pt;">lock_version (integer)</text>
</g>
<!-- QuranStructSurah&#45;&gt;QuranSurah -->
<g id="edge15" class="edge"><title>QuranStructSurah&#45;&gt;QuranSurah</title>
<path style="fill:none;stroke:black;" d="M428,-807C473,-772 533,-720 579,-668 586,-659 593,-650 600,-640"/>
<polygon style="fill:black;stroke:black;" points="602.8,-642.1 606,-632 597.2,-637.9 602.8,-642.1"/>
<a xlink:title="surahs">
</a>
<a xlink:title="surahs">
</a>
<text text-anchor="middle" x="575" y="-688" style="font-family:Nimbus Roman No9 L;font-weight:regular;font-size:11.34pt;">surahs</text>
</g>
<!-- QuranStructSurah&#45;&gt;QuranPageImage -->
<g id="edge11" class="edge"><title>QuranStructSurah&#45;&gt;QuranPageImage</title>
<path style="fill:none;stroke:black;" d="M405,-774C420,-744 437,-709 453,-677"/>
<polygon style="fill:black;stroke:black;" points="456.137,-678.56 457,-668 449.74,-675.717 456.137,-678.56"/>
<a xlink:title="pages">
</a>
<a xlink:title="pages">
</a>
<text text-anchor="middle" x="461" y="-688" style="font-family:Nimbus Roman No9 L;font-weight:regular;font-size:11.34pt;">pages</text>
</g>
<!-- QuranStructSurah&#45;&gt;QuranStructJuz -->
<g id="edge9" class="edge"><title>QuranStructSurah&#45;&gt;QuranStructJuz</title>
<path style="fill:none;stroke:black;" d="M302,-809C255,-773 192,-721 145,-668 135,-657 126,-644 118,-632"/>
<polygon style="fill:black;stroke:black;" points="120.459,-629.379 112,-623 114.635,-633.262 120.459,-629.379"/>
<a xlink:title="ajza">
</a>
<a xlink:title="ajza">
</a>
<text text-anchor="middle" x="191" y="-688" style="font-family:Nimbus Roman No9 L;font-weight:regular;font-size:11.34pt;">ajza</text>
</g>
<!-- QuranStructSurah&#45;&gt;QuranStructSajdaTilawa -->
<g id="edge13" class="edge"><title>QuranStructSurah&#45;&gt;QuranStructSajdaTilawa</title>
<path style="fill:none;stroke:black;" d="M324,-774C303,-730 275,-675 253,-632"/>
<polygon style="fill:black;stroke:black;" points="256.26,-630.717 249,-623 249.863,-633.56 256.26,-630.717"/>
<a xlink:title="sajdas">
</a>
<a xlink:title="sajdas">
</a>
<text text-anchor="middle" x="306" y="-688" style="font-family:Nimbus Roman No9 L;font-weight:regular;font-size:11.34pt;">sajdas</text>
</g>
<!-- QuranStructSurahRuku -->
<g id="node20" class="node"><title>QuranStructSurahRuku</title>
<polygon style="fill:#f1ffe8;stroke:black;" points="298,-479 298,-641 433,-641 433,-479 298,-479"/>
<text text-anchor="middle" x="365" y="-628" style="font:Verdana;font-size:7.29pt;">QuranStructSurahRuku</text>
<polyline style="fill:none;stroke:black;" points="298,-623 433,-623 "/>
<text text-anchor="middle" x="365" y="-610" style="font:Verdana;font-size:7.29pt;">id (integer)</text>
<polyline style="fill:none;stroke:black;" points="298,-605 433,-605 "/>
<text text-anchor="middle" x="365" y="-592" style="font:Verdana;font-size:7.29pt;">surah_num (integer)</text>
<polyline style="fill:none;stroke:black;" points="298,-587 433,-587 "/>
<text text-anchor="middle" x="365" y="-574" style="font:Verdana;font-size:7.29pt;">ruku_num (integer)</text>
<polyline style="fill:none;stroke:black;" points="298,-569 433,-569 "/>
<text text-anchor="middle" x="365" y="-556" style="font:Verdana;font-size:7.29pt;">start_ayah_num (integer)</text>
<polyline style="fill:none;stroke:black;" points="298,-551 433,-551 "/>
<text text-anchor="middle" x="365" y="-538" style="font:Verdana;font-size:7.29pt;">end_ayah_num (integer)</text>
<polyline style="fill:none;stroke:black;" points="298,-533 433,-533 "/>
<text text-anchor="middle" x="365" y="-520" style="font:Verdana;font-size:7.29pt;">created_at (datetime)</text>
<polyline style="fill:none;stroke:black;" points="298,-515 433,-515 "/>
<text text-anchor="middle" x="365" y="-502" style="font:Verdana;font-size:7.29pt;">updated_at (datetime)</text>
<polyline style="fill:none;stroke:black;" points="298,-497 433,-497 "/>
<text text-anchor="middle" x="365" y="-484" style="font:Verdana;font-size:7.29pt;">lock_version (integer)</text>
</g>
<!-- QuranStructSurah&#45;&gt;QuranStructSurahRuku -->
<g id="edge17" class="edge"><title>QuranStructSurah&#45;&gt;QuranStructSurahRuku</title>
<path style="fill:none;stroke:black;" d="M365,-774C365,-736 365,-691 365,-651"/>
<polygon style="fill:black;stroke:black;" points="368.5,-651 365,-641 361.5,-651 368.5,-651"/>
<a xlink:title="rukus">
</a>
<a xlink:title="rukus">
</a>
<text text-anchor="middle" x="381" y="-688" style="font-family:Nimbus Roman No9 L;font-weight:regular;font-size:11.34pt;">rukus</text>
</g>
</g>
</svg>
